<svg width="160" height="28" viewBox="-40 0 240 28" fill="none" xmlns="http://www.w3.org/2000/svg">
<path d="M11.8047 16.5908C11.8047 15.7884 11.5215 15.1748 10.9551 14.75C10.3887 14.3158 9.36914 13.8626 7.89648 13.3906C6.42383 12.9092 5.25798 12.4372 4.39893 11.9746C2.05778 10.7096 0.887207 9.0057 0.887207 6.86279C0.887207 5.74886 1.19873 4.75765 1.82178 3.88916C2.45426 3.01123 3.35579 2.32682 4.52637 1.83594C5.70638 1.34505 7.02799 1.09961 8.49121 1.09961C9.96387 1.09961 11.276 1.36865 12.4277 1.90674C13.5794 2.43538 14.4715 3.18587 15.104 4.1582C15.7459 5.13053 16.0669 6.23503 16.0669 7.47168H11.8188C11.8188 6.52767 11.5215 5.79606 10.9268 5.27686C10.332 4.74821 9.49658 4.48389 8.42041 4.48389C7.382 4.48389 6.57487 4.70573 5.99902 5.14941C5.42318 5.58366 5.13525 6.15951 5.13525 6.87695C5.13525 7.5472 5.47038 8.10889 6.14062 8.56201C6.82031 9.01514 7.81624 9.43994 9.12842 9.83643C11.5451 10.5633 13.3057 11.4648 14.4102 12.541C15.5146 13.6172 16.0669 14.9577 16.0669 16.5625C16.0669 18.3467 15.3919 19.7485 14.042 20.7681C12.6921 21.7782 10.8748 22.2832 8.59033 22.2832C7.00439 22.2832 5.56006 21.9953 4.25732 21.4194C2.95459 20.8341 1.95866 20.0365 1.26953 19.0264C0.589844 18.0163 0.25 16.8457 0.25 15.5146H4.51221C4.51221 17.7897 5.87158 18.9272 8.59033 18.9272C9.60042 18.9272 10.3887 18.7243 10.9551 18.3184C11.5215 17.903 11.8047 17.3271 11.8047 16.5908ZM30.2271 6.67871L30.3545 8.39209C31.4401 7.06104 32.908 6.39551 34.7583 6.39551C36.7313 6.39551 38.0859 7.17432 38.8223 8.73193C39.8984 7.17432 41.4325 6.39551 43.4243 6.39551C45.0858 6.39551 46.3224 6.88167 47.1343 7.854C47.9461 8.81689 48.3521 10.2707 48.3521 12.2153V22H44.2456V12.2295C44.2456 11.361 44.0757 10.7285 43.7358 10.332C43.396 9.92611 42.7965 9.72314 41.9375 9.72314C40.7103 9.72314 39.8607 10.3084 39.3887 11.479L39.4028 22H35.3105V12.2437C35.3105 11.3563 35.1359 10.7144 34.7866 10.3179C34.4373 9.92139 33.8426 9.72314 33.0024 9.72314C31.8413 9.72314 31.0011 10.2046 30.4819 11.1675V22H26.3896V6.67871H30.2271ZM65.3018 14.481C65.3018 16.841 64.7637 18.7337 63.6875 20.1592C62.6208 21.5752 61.1764 22.2832 59.3545 22.2832C57.8063 22.2832 56.5555 21.7451 55.6021 20.6689V27.8906H51.5098V6.67871H55.3047L55.4463 8.17969C56.4375 6.99023 57.7308 6.39551 59.3262 6.39551C61.2142 6.39551 62.6821 7.09408 63.73 8.49121C64.7778 9.88835 65.3018 11.8141 65.3018 14.2686V14.481ZM61.2095 14.1836C61.2095 12.7581 60.9546 11.6584 60.4448 10.8843C59.9445 10.1102 59.2129 9.72314 58.25 9.72314C56.9661 9.72314 56.0835 10.214 55.6021 11.1958V17.4688C56.1024 18.4788 56.9945 18.9839 58.2783 18.9839C60.2324 18.9839 61.2095 17.3838 61.2095 14.1836ZM72.1694 22H68.063V0.25H72.1694V22ZM82.6055 22.2832C80.3587 22.2832 78.5273 21.5941 77.1113 20.2158C75.7048 18.8376 75.0015 17.0015 75.0015 14.7075V14.311C75.0015 12.7723 75.2988 11.3988 75.8936 10.1904C76.4883 8.97266 77.3285 8.03809 78.4141 7.38672C79.5091 6.72591 80.7552 6.39551 82.1523 6.39551C84.248 6.39551 85.8953 7.05632 87.0942 8.37793C88.3026 9.69954 88.9067 11.5734 88.9067 13.9995V15.6704H79.1504C79.2826 16.6711 79.679 17.4735 80.3398 18.0776C81.0101 18.6818 81.855 18.9839 82.8745 18.9839C84.451 18.9839 85.6829 18.4128 86.5703 17.2705L88.5811 19.522C87.9674 20.3905 87.1367 21.0701 86.0889 21.561C85.041 22.0425 83.8799 22.2832 82.6055 22.2832ZM82.1382 9.70898C81.3263 9.70898 80.6655 9.98275 80.1558 10.5303C79.6554 11.0778 79.3345 11.8613 79.1929 12.8809H84.8853V12.5552C84.8664 11.6489 84.6209 10.9504 84.1489 10.4595C83.6769 9.95915 83.0067 9.70898 82.1382 9.70898Z" fill="white"/>
<path d="M23.0054 22H18.8989V6.67871H23.0054V22ZM18.6582 2.71387C18.6582 2.10026 18.8612 1.59521 19.2671 1.19873C19.6825 0.802246 20.2441 0.604004 20.9521 0.604004C21.6507 0.604004 22.2077 0.802246 22.623 1.19873C23.0384 1.59521 23.2461 2.10026 23.2461 2.71387C23.2461 3.33691 23.0337 3.84668 22.6089 4.24316C22.1935 4.63965 21.6413 4.83789 20.9521 4.83789C20.263 4.83789 19.7061 4.63965 19.2812 4.24316C18.8659 3.84668 18.6582 3.33691 18.6582 2.71387ZM102.203 16.5908C102.203 15.7884 101.92 15.1748 101.354 14.75C100.787 14.3158 99.7676 13.8626 98.2949 13.3906C96.8223 12.9092 95.6564 12.4372 94.7974 11.9746C92.4562 10.7096 91.2856 9.0057 91.2856 6.86279C91.2856 5.74886 91.5972 4.75765 92.2202 3.88916C92.8527 3.01123 93.7542 2.32682 94.9248 1.83594C96.1048 1.34505 97.4264 1.09961 98.8896 1.09961C100.362 1.09961 101.674 1.36865 102.826 1.90674C103.978 2.43538 104.87 3.18587 105.502 4.1582C106.144 5.13053 106.465 6.23503 106.465 7.47168H102.217C102.217 6.52767 101.92 5.79606 101.325 5.27686C100.73 4.74821 99.895 4.48389 98.8188 4.48389C97.7804 4.48389 96.9733 4.70573 96.3975 5.14941C95.8216 5.58366 95.5337 6.15951 95.5337 6.87695C95.5337 7.5472 95.8688 8.10889 96.5391 8.56201C97.2188 9.01514 98.2147 9.43994 99.5269 9.83643C101.944 10.5633 103.704 11.4648 104.809 12.541C105.913 13.6172 106.465 14.9577 106.465 16.5625C106.465 18.3467 105.79 19.7485 104.44 20.7681C103.09 21.7782 101.273 22.2832 98.9888 22.2832C97.4028 22.2832 95.9585 21.9953 94.6558 21.4194C93.353 20.8341 92.3571 20.0365 91.668 19.0264C90.9883 18.0163 90.6484 16.8457 90.6484 15.5146H94.9106C94.9106 17.7897 96.27 18.9272 98.9888 18.9272C99.9989 18.9272 100.787 18.7243 101.354 18.3184C101.92 17.903 102.203 17.3271 102.203 16.5908ZM122.41 16.4351L124.42 6.67871H128.371L124.463 22H121.036L118.133 12.3569L115.23 22H111.818L107.91 6.67871H111.86L113.857 16.4209L116.661 6.67871H119.62L122.41 16.4351ZM139.289 22C139.1 21.6318 138.963 21.174 138.878 20.6265C137.887 21.731 136.598 22.2832 135.012 22.2832C133.511 22.2832 132.265 21.849 131.274 20.9805C130.292 20.112 129.801 19.0169 129.801 17.6953C129.801 16.0716 130.401 14.8255 131.6 13.957C132.808 13.0885 134.55 12.6496 136.825 12.6401H138.708V11.7622C138.708 11.0542 138.524 10.4878 138.156 10.063C137.797 9.63818 137.226 9.42578 136.442 9.42578C135.753 9.42578 135.21 9.59098 134.814 9.92139C134.427 10.2518 134.233 10.7049 134.233 11.2808H130.141C130.141 10.3934 130.415 9.5721 130.962 8.81689C131.51 8.06169 132.284 7.47168 133.285 7.04688C134.285 6.61263 135.409 6.39551 136.655 6.39551C138.543 6.39551 140.039 6.87223 141.144 7.82568C142.257 8.76969 142.814 10.1007 142.814 11.8188V18.46C142.824 19.9137 143.027 21.0135 143.423 21.7593V22H139.289ZM135.904 19.1538C136.508 19.1538 137.065 19.0216 137.575 18.7573C138.085 18.4836 138.463 18.1201 138.708 17.667V15.0332H137.179C135.13 15.0332 134.04 15.7412 133.908 17.1572L133.894 17.3979C133.894 17.9077 134.073 18.3278 134.432 18.6582C134.79 18.9886 135.281 19.1538 135.904 19.1538ZM159.75 14.481C159.75 16.841 159.212 18.7337 158.136 20.1592C157.069 21.5752 155.625 22.2832 153.803 22.2832C152.255 22.2832 151.004 21.7451 150.05 20.6689V27.8906H145.958V6.67871H149.753L149.895 8.17969C150.886 6.99023 152.179 6.39551 153.774 6.39551C155.662 6.39551 157.13 7.09408 158.178 8.49121C159.226 9.88835 159.75 11.8141 159.75 14.2686V14.481ZM155.658 14.1836C155.658 12.7581 155.403 11.6584 154.893 10.8843C154.393 10.1102 153.661 9.72314 152.698 9.72314C151.414 9.72314 150.532 10.214 150.05 11.1958V17.4688C150.551 18.4788 151.443 18.9839 152.727 18.9839C154.681 18.9839 155.658 17.3838 155.658 14.1836Z" fill="#fff"/>
</svg>
