<?xml version="1.0"?>
<svg width="1400" height="350" xmlns="http://www.w3.org/2000/svg" xmlns:svg="http://www.w3.org/2000/svg" xmlns:se="http://svg-edit.googlecode.com" data-name="Layer 1">
 <defs>
  <style>.cls-1{fill:#eeeeee}</style>
 </defs>
 <g class="layer">
  <title>Layer 1</title>
  <path d="m481.894,265l44.668,-135.685l21.507,7.03l-15.369,-50.793l132.924,0c24.123,0 36.676,21.553 27.976,48.048l-8.42,25.643c-0.11,0.33 -0.231,0.653 -0.359,0.983l-0.358,0.936a70.641,70.641 0 0 1 -9.537,17.659c-12.647,17.2 -31.909,28.367 -49.057,28.462l-1.275,0.02l-65.436,0l-18.942,57.697l-58.322,0zm87.114,-87.69l35.41,0c8.858,0 18.656,-7.912 21.842,-17.641l8.7,-26.479c3.195,-9.733 -1.409,-17.648 -10.254,-17.648l-35.417,0l-20.281,61.768zm-240.397,87.681a39.365,39.365 0 0 1 -4.525,-0.406a31.034,31.034 0 0 1 -7.332,-1.815c-4.684,-1.764 -8.847,-4.158 -12,-8.166a29.956,29.956 0 0 1 -4.464,-8.065a33.986,33.986 0 0 1 -1.333,-4.539c-1.712,-7.767 -1,-15.565 1.139,-23.163c0.186,-0.662 1.063,-3.511 1.063,-3.511l42.617,-129.774l58.838,0l-43.292,131.81c-2.368,7.207 -0.538,13.622 4.634,16.328a10.793,10.793 0 0 0 5.434,1.318l29.072,0l49.077,-149.456l66.5,0l-48.733,50.793l26.314,-7.03l-44.677,135.685l-118.332,-0.009z" fill="#eeeeee" id="svg_3"/>
  <path class="cls-1" d="m683.55,265l58.916,-179.448l58.32,0l-18.938,57.686l66.468,0c17.324,0.106 29.245,11.3 30.6,28.484a49.405,49.405 0 0 1 -2.08,17.688s-0.42,1.545 -0.526,1.889l-8.433,25.65c-8.69,26.5 -35.4,48.051 -59.528,48.051l-124.799,0zm68.168,-29.992l35.407,0c8.845,0 18.661,-7.915 21.85,-17.651l8.692,-26.476c3.2,-9.722 -1.4,-17.639 -10.259,-17.639l-35.408,0l-20.282,61.766zm265.225,29.431c-0.774,-0.009 -4.009,-0.342 -4.527,-0.4a34.493,34.493 0 0 1 -12.815,-4.363c-0.354,-0.2 -0.688,-0.453 -1.02,-0.686c-7.5,-5.3 -11.524,-14.038 -12.23,-23.008a49.49,49.49 0 0 1 2.062,-17.693c0.461,-1.637 0.416,-1.518 0.537,-1.9l43.15,-131.389l58.342,0l-18.957,57.7l26.515,0l-9.846,29.99l-26.512,0l-8.074,24.568c-2.21,6.752 -4.324,13.335 -5.78,19.8c-1.469,6.5 -0.673,11.233 2.351,14.071c3.658,3.444 9.356,3.878 13.9,3.878l19.161,0l-9.666,29.44l-56.591,-0.008z" fill="black" id="svg_2"/>
  <path class="cls-1" d="m881.372,264.448l35.449,-107.668l58.334,0l-35.441,107.668l-58.342,0zm44.438,-135.317l14.479,-44.122l58.338,0l-14.479,44.122l-58.338,0z" id="svg_1" transform="translate(-1 0)"/>
 </g>
</svg>